<svg width="512" height="512" viewBox="0 0 512 512" fill="none" xmlns="http://www.w3.org/2000/svg">
  <defs>
    <linearGradient id="bg" x1="0" y1="0" x2="512" y2="512" gradientUnits="userSpaceOnUse">
      <stop offset="0" stop-color="#121220"/>
      <stop offset="1" stop-color="#1a1a2e"/>
    </linearGradient>
    <linearGradient id="wave" x1="64" y1="256" x2="448" y2="256" gradientUnits="userSpaceOnUse">
      <stop offset="0" stop-color="#00E676"/>
      <stop offset="1" stop-color="#1DE9B6"/>
    </linearGradient>
  </defs>
  <rect x="16" y="16" width="480" height="480" rx="104" fill="url(#bg)"/>
  <rect x="16" y="16" width="480" height="480" rx="104" fill="none" stroke="#2a2a40" stroke-width="2"/>
  <g stroke="url(#wave)" stroke-width="22" stroke-linecap="round">
    <line x1="96"  y1="256" x2="96"  y2="256"/>
    <line x1="134" y1="200" x2="134" y2="312"/>
    <line x1="172" y1="158" x2="172" y2="354"/>
    <line x1="210" y1="120" x2="210" y2="392"/>
    <line x1="248" y1="176" x2="248" y2="336"/>
    <line x1="286" y1="96"  x2="286" y2="416"/>
    <line x1="324" y1="158" x2="324" y2="354"/>
    <line x1="362" y1="208" x2="362" y2="304"/>
    <line x1="400" y1="240" x2="400" y2="272"/>
    <line x1="438" y1="256" x2="438" y2="256"/>
  </g>
</svg>
